<?xml version="1.0" encoding="UTF-8"?>
<svg enable-background="new 0 0 64 64" version="1.1" viewBox="0 0 64 64" xml:space="preserve" xmlns="http://www.w3.org/2000/svg">
<style type="text/css">
	.st0{fill:#4F5D73;}
	.st1{opacity:0.2;}
	.st2{fill:#231F20;}
	.st3{fill:#E0995E;}
	.st4{fill:#FFFFFF;}
</style>

	
		<circle class="st0" cx="32" cy="32" r="32"/>
	
	<g class="st1">
		<circle class="st2" cx="22" cy="24" r="10"/>
	</g>
	
		<circle class="st3" cx="22" cy="22" r="10"/>
	
	<g class="st1">
		<path class="st2" d="m48.7 36c0-7.7-6.6-14-14.7-14-6.9 0-12.6 4.5-14.2 10.6-4.4 0.6-7.8 4.3-7.8 8.6 0 4.8 4.1 8.8 9.2 8.8h27.5c4.1 0 7.3-3.1 7.3-7s-3.3-7-7.3-7z"/>
	</g>
	
		<g class="st1">
			<path class="st2" d="m32 22c0-1-0.2-2-0.4-2.9-6.2 0.6-11.3 4.9-12.8 10.5-0.8 0.1-1.6 0.4-2.4 0.7 1.6 1.1 3.5 1.7 5.6 1.7 5.5 0 10-4.5 10-10z"/>
		</g>
	
	
		<path class="st4" d="m48.7 34c0-7.7-6.6-14-14.7-14-6.9 0-12.6 4.5-14.2 10.6-4.4 0.6-7.8 4.3-7.8 8.6 0 4.8 4.1 8.8 9.2 8.8h27.5c4.1 0 7.3-3.1 7.3-7s-3.3-7-7.3-7z"/>
	


</svg>
